<svg fill="currentColor" xmlns="http://www.w3.org/2000/svg" viewBox="0 0 18 18">
  <path d="M15.75 3h-2.325A3.757 3.757 0 0 0 9.75 0h-1.5a3.757 3.757 0 0 0-3.675 3H2.25a.75.75 0 0 0 0 1.5H3v9.75A3.754 3.754 0 0 0 6.75 18h4.5A3.754 3.754 0 0 0 15 14.25V4.5h.75a.75.75 0 1 0 0-1.5Zm-7.5-1.5h1.5A2.255 2.255 0 0 1 11.872 3H6.128A2.255 2.255 0 0 1 8.25 1.5Zm5.25 12.75a2.25 2.25 0 0 1-2.25 2.25h-4.5a2.25 2.25 0 0 1-2.25-2.25V4.5h9v9.75Z"/>
  <path d="M7.5 13.5a.75.75 0 0 0 .75-.75v-4.5a.75.75 0 0 0-1.5 0v4.5a.75.75 0 0 0 .75.75ZM10.5 13.5a.75.75 0 0 0 .75-.75v-4.5a.75.75 0 1 0-1.5 0v4.5a.75.75 0 0 0 .75.75Z"/>
</svg>